<?xml version="1.0" encoding="UTF-8"?><svg xmlns="http://www.w3.org/2000/svg" viewBox="0 0 996.76 902.04"><defs><style>.d,.e{fill:#034ea2;}.e{fill-rule:evenodd;}</style></defs><g id="a"/><g id="b"><g id="c"><g><g><path class="e" d="M369.51,208.03v49.87l13.3-1.3v-36.02h12v34.85l12.83-1.25v-40.65c0-1.7,.08-3.85,0-5.5h-38.12Z"/><path class="e" d="M410.06,0c-96.44,0-174.62,78.18-174.62,174.62,0,6.16,.32,12.24,.94,18.23l34.58,27.51,41.73,18.43c.98,.43,1.91,.95,2.81,1.5h25.63c.85-3.13,1.59-7.02,2.26-10.24l14.59-68.12c1.35-6.03,2.52-12.1,3.91-18.12,.38-1.62,.1-2.95,1.94-3.12h51.27c.75,8.77,4.61,21.85,6.5,30.89l12.37,60.19,10.75-11.39,59.9-89.86c3.61-5.42,9.23-9.13,15.62-10.34l51.63-11.25C545.93,45.05,483.26,0,410.06,0Zm-21.47,133.75c-18.49,0-33.49-14.99-33.49-33.49s14.99-33.49,33.49-33.49,33.49,14.99,33.49,33.49-14.99,33.49-33.49,33.49Z"/></g><path class="d" d="M319.06,779.07c-7.04-.97-11.96-7.47-10.98-14.51,.97-7.04,7.47-11.96,14.51-10.98,33.11,4.67,62.51,20.79,84.06,44.22,21.4,23.26,35.08,53.74,37,87.39,.39,7.09-5.05,13.16-12.14,13.55-7.09,.39-13.16-5.05-13.55-12.14-1.57-27.45-12.76-52.35-30.25-71.37-17.63-19.17-41.65-32.35-68.65-36.16m-98.66,33.42c-4.98,5.06-13.12,5.13-18.19,.15-5.06-4.98-5.13-13.12-.15-18.19,10.39-10.58,22.38-19.52,35.57-26.39,12.86-6.7,26.96-11.49,41.91-13.97,7.01-1.14,13.62,3.62,14.76,10.63,1.14,7.01-3.62,13.62-10.63,14.76-12.06,2-23.55,5.93-34.15,11.45-10.86,5.66-20.68,12.96-29.12,21.55Zm-35.58-27.26c-4.81,5.23-12.96,5.57-18.19,.76-5.23-4.81-5.57-12.96-.76-18.19,17.3-18.86,38.43-34.13,62.17-44.57,22.89-10.07,48.17-15.66,74.72-15.66,50.46,0,96.23,20.15,129.71,52.85,33.56,32.77,54.76,78.15,55.94,128.48,.17,7.09-5.45,12.98-12.55,13.15-7.09,.17-12.98-5.45-13.15-12.54-1.02-43.34-19.27-82.42-48.18-110.64-28.82-28.15-68.27-45.49-111.78-45.49-22.92,0-44.69,4.8-64.34,13.45-20.47,9.01-38.7,22.17-53.6,38.43Zm193.15-82.18c-6.62-2.62-9.87-10.1-7.25-16.73,2.62-6.62,10.1-9.87,16.73-7.25,42.46,16.8,78.74,45.85,104.47,82.81,25.01,35.92,40.05,79.37,41.08,126.32,.14,7.09-5.5,12.96-12.59,13.1-7.09,.14-12.96-5.5-13.1-12.59-.91-41.59-14.29-80.15-36.55-112.11-22.85-32.81-55.07-58.61-92.78-73.53Zm-53.28-13.14c-7.07-.75-12.19-7.09-11.44-14.16,.75-7.07,7.09-12.19,14.16-11.44,3.69,.39,7.04,.82,10.06,1.28,3.31,.5,6.67,1.09,10.05,1.76,6.98,1.36,11.54,8.13,10.18,15.11-1.36,6.98-8.13,11.54-15.11,10.18-2.9-.57-5.88-1.09-8.94-1.56-3.27-.5-6.26-.89-8.96-1.18Zm-172.94,65.35c-4.79,5.23-12.91,5.59-18.14,.81-5.23-4.79-5.59-12.91-.81-18.14,19.61-21.44,43.19-39.15,69.55-51.94,25.58-12.41,53.79-20.23,83.57-22.39,7.09-.5,13.25,4.85,13.75,11.94,.5,7.09-4.85,13.25-11.94,13.75-26.45,1.92-51.5,8.86-74.19,19.87-23.47,11.39-44.42,27.11-61.79,46.1Zm-30.44-32.69c-4.87,5.17-13.01,5.42-18.19,.55-5.17-4.87-5.42-13.01-.55-18.19,14.08-14.96,29.78-28.32,46.79-39.78,16.8-11.32,35.01-20.86,54.34-28.33,6.62-2.56,14.07,.73,16.63,7.36,2.56,6.62-.73,14.07-7.36,16.62-17.36,6.71-33.84,15.37-49.2,25.71-15.51,10.45-29.75,22.55-42.46,36.05Zm207.84-121.86c-7.07-.61-12.3-6.84-11.69-13.91,.61-7.07,6.84-12.3,13.91-11.69,4.68,.42,8.42,.8,11.26,1.16,3.1,.39,6.87,.94,11.26,1.65,7.01,1.11,11.79,7.7,10.68,14.71-1.11,7.01-7.7,11.79-14.71,10.68-2.77-.45-6.22-.93-10.35-1.44-4.32-.54-7.79-.93-10.36-1.16Zm-235.52,86.33c-4.98,5.06-13.12,5.13-18.19,.15-5.06-4.98-5.13-13.12-.15-18.19,28.15-28.54,61.59-51.8,98.7-68.17,35.84-15.8,75.18-25.21,116.59-26.77,7.09-.25,13.05,5.3,13.3,12.39,.25,7.09-5.3,13.05-12.39,13.3-37.95,1.43-74.1,10.09-107.12,24.65-34.18,15.07-64.92,36.44-90.74,62.63Zm-24.71-38.26c-5.15,4.9-13.29,4.69-18.19-.45-4.9-5.15-4.69-13.29,.45-18.19,21.63-20.69,45.84-38.75,72.1-53.65,25.77-14.63,53.55-26.21,82.85-34.26,6.84-1.86,13.9,2.17,15.77,9.02,1.86,6.84-2.17,13.9-9.02,15.77-27.11,7.45-52.9,18.21-76.91,31.85-24.39,13.84-46.9,30.65-67.06,49.93Zm-21.32-41.01c-5.29,4.73-13.41,4.28-18.14-1.01-4.73-5.29-4.28-13.41,1.01-18.14,36.87-32.97,79.7-59.34,126.62-77.26,45.27-17.28,94.38-26.76,145.67-26.76,12.7,0,25.6,.63,38.66,1.85,13.06,1.23,25.81,3.04,38.21,5.4,6.98,1.31,11.58,8.03,10.28,15.01-1.31,6.98-8.03,11.58-15.01,10.28-11.89-2.27-23.83-3.97-35.8-5.1-11.63-1.09-23.75-1.65-36.34-1.65-48.12,0-94.13,8.86-136.5,25.04-44.08,16.83-84.21,41.51-118.66,72.32Zm851-72.54c-7.04,.89-13.47-4.09-14.36-11.13-.89-7.04,4.09-13.47,11.13-14.36,3.22-.41,6.23-.71,9.01-.89,3.25-.21,6.28-.31,9.06-.31,9.77,0,19.42,1.03,28.84,2.99,9.56,1.99,18.79,4.95,27.55,8.78,6.51,2.84,9.49,10.42,6.65,16.93-2.84,6.51-10.42,9.49-16.93,6.65-7.15-3.12-14.68-5.54-22.52-7.17-7.51-1.56-15.4-2.38-23.6-2.38-2.76,0-5.25,.07-7.45,.21-2.73,.17-5.2,.4-7.4,.69Zm-56.97,204.79c5.56,4.42,6.49,12.52,2.07,18.09-4.42,5.56-12.52,6.49-18.09,2.07-16.54-13.17-30.06-29.98-39.34-49.22-8.96-18.57-13.98-39.35-13.98-61.24,0-27.81,8.1-53.79,22.08-75.73,14.43-22.64,35.07-40.87,59.5-52.26,6.46-3,14.12-.21,17.13,6.25,3,6.46,.21,14.12-6.25,17.13-20.06,9.35-36.96,24.25-48.71,42.69-11.37,17.83-17.95,39.08-17.95,61.93,0,17.99,4.08,34.97,11.36,50.06,7.59,15.73,18.65,29.48,32.19,40.26Zm57.4-68.39c5.93,3.9,7.57,11.86,3.68,17.78-3.9,5.93-11.86,7.57-17.78,3.68-7.21-4.75-13.15-11.21-17.23-18.77-3.97-7.36-6.22-15.75-6.22-24.62,0-14.35,5.82-27.35,15.23-36.76,9.41-9.41,22.4-15.23,36.76-15.23,4.43,0,8.75,.56,12.88,1.62,4.24,1.08,8.3,2.71,12.1,4.8,6.23,3.42,8.51,11.25,5.09,17.48-3.42,6.23-11.25,8.51-17.48,5.09-1.86-1.02-3.89-1.83-6.06-2.38-2.07-.53-4.26-.81-6.53-.81-7.23,0-13.78,2.93-18.52,7.67-4.74,4.74-7.67,11.29-7.67,18.52,0,4.53,1.12,8.76,3.1,12.42,2.09,3.87,5.07,7.14,8.67,9.5Zm-27.09,35.42c5.76,4.17,7.04,12.23,2.87,17.98-4.17,5.76-12.23,7.04-17.98,2.87-12.28-8.9-22.39-20.68-29.38-34.37-6.75-13.23-10.57-28.13-10.57-43.84,0-26.67,10.81-50.81,28.29-68.29,17.48-17.48,41.62-28.29,68.29-28.29,7.44,0,14.75,.87,21.84,2.51,7.26,1.68,14.21,4.19,20.75,7.4,6.37,3.14,8.99,10.86,5.84,17.23-3.14,6.37-10.86,8.99-17.23,5.84-4.76-2.34-9.82-4.16-15.11-5.39-5.1-1.18-10.48-1.81-16.09-1.81-19.55,0-37.24,7.92-50.05,20.73-12.81,12.81-20.73,30.5-20.73,50.05,0,11.66,2.76,22.58,7.64,32.15,5.1,9.98,12.54,18.62,21.63,25.2Zm-117.4-38.83c.81,7.07-4.27,13.45-11.34,14.26-7.07,.81-13.45-4.27-14.26-11.34-.39-3.38-.69-6.96-.91-10.73-.22-3.89-.34-7.47-.34-10.71,0-51.29,20.79-97.73,54.41-131.35,33.61-33.61,80.05-54.41,131.35-54.41,11.37,0,22.65,1.07,33.74,3.11,11.34,2.09,22.22,5.15,32.55,9.1,6.65,2.53,9.99,9.98,7.46,16.62-2.53,6.65-9.98,9.99-16.62,7.46-9.08-3.47-18.45-6.13-28.01-7.89-9.29-1.71-19.01-2.6-29.1-2.6-44.17,0-84.16,17.9-113.11,46.85-28.95,28.95-46.85,68.94-46.85,113.11,0,3.47,.08,6.57,.24,9.3,.17,2.93,.44,6,.81,9.22Zm53.77,102.08c5.34,4.67,5.88,12.79,1.21,18.14-4.67,5.34-12.79,5.88-18.14,1.21-11.93-10.42-22.51-22.3-31.42-35.36-8.86-12.98-16.11-27.09-21.46-42.05-2.39-6.71,1.1-14.08,7.81-16.47,6.71-2.39,14.08,1.1,16.47,7.81,4.63,12.96,10.86,25.11,18.44,36.21,7.73,11.32,16.84,21.58,27.09,30.52Zm54-318.76c-6.87,1.75-13.86-2.4-15.62-9.27-1.75-6.87,2.4-13.86,9.27-15.62,9.29-2.39,18.79-4.22,28.45-5.43,9.78-1.23,19.48-1.87,29.05-1.87,12.28,0,24.5,1.01,36.59,2.94,12.36,1.98,24.25,4.88,35.59,8.62,6.76,2.23,10.44,9.51,8.21,16.27-2.23,6.76-9.51,10.44-16.27,8.21-10.33-3.41-20.88-6.01-31.56-7.72-10.43-1.67-21.3-2.54-32.56-2.54-9.02,0-17.63,.53-25.82,1.57-8.64,1.09-17.1,2.71-25.32,4.83Zm-44.93,17.48c-6.26,3.34-14.04,.97-17.38-5.29-3.34-6.26-.97-14.04,5.29-17.38,2.72-1.45,4.61-2.44,5.63-2.95,1.55-.77,3.48-1.69,5.77-2.76,6.45-2.98,14.1-.16,17.08,6.3,2.98,6.45,.16,14.1-6.3,17.08-1.34,.62-3.03,1.44-5.07,2.45-2.55,1.27-4.23,2.12-5.03,2.54Zm-45.31,328.53c5.15,4.9,5.35,13.04,.45,18.19-4.9,5.15-13.04,5.35-18.19,.45-22.36-21.38-40.42-47.21-52.76-76.07-11.89-27.81-18.47-58.38-18.47-90.43,0-35.85,8.22-69.82,22.89-100.15,15.22-31.46,37.37-58.93,64.46-80.4,5.56-4.42,13.66-3.5,18.09,2.07,4.42,5.56,3.5,13.66-2.07,18.09-24.1,19.11-43.79,43.51-57.3,71.44-12.99,26.85-20.27,57.03-20.27,88.96,0,28.57,5.83,55.73,16.35,80.36,10.95,25.61,26.98,48.54,46.81,67.5Zm-54.23-302.25c-4.4,5.56-12.47,6.51-18.04,2.12-5.56-4.4-6.51-12.47-2.12-18.04,25.67-32.48,58.48-59.01,96.05-77.22,36.23-17.56,76.85-27.41,119.72-27.41,12.48,0,24.95,.87,37.32,2.56,12.47,1.7,24.67,4.23,36.55,7.54,6.84,1.89,10.86,8.97,8.97,15.82-1.89,6.84-8.97,10.86-15.82,8.97-10.77-3-21.83-5.3-33.13-6.83-10.91-1.49-22.22-2.25-33.9-2.25-38.95,0-75.77,8.91-108.53,24.79-34.1,16.53-63.85,40.57-87.08,69.97Zm15.3,326.36c4.9,5.15,4.69,13.29-.45,18.19-5.15,4.9-13.29,4.69-18.19-.45-23.96-25.12-43.22-54.78-56.35-87.57-12.67-31.64-19.64-66.11-19.64-102.13,0-24.29,3.18-47.91,9.16-70.48,6.15-23.23,15.26-45.25,26.9-65.64,3.51-6.18,11.36-8.34,17.53-4.84,6.18,3.51,8.34,11.36,4.84,17.53-10.55,18.48-18.81,38.44-24.38,59.49-5.38,20.33-8.25,41.75-8.25,63.93,0,32.77,6.29,64.01,17.72,92.56,11.9,29.72,29.37,56.62,51.11,79.41Zm-113.27-182.14c-.22,7.09-6.16,12.67-13.25,12.44-7.09-.22-12.67-6.16-12.44-13.25,2.91-85.86,39.67-163.12,97.35-218.85,57.48-55.54,135.72-89.7,221.92-89.7,12.01,0,24,.69,35.91,2.03,11.93,1.34,23.73,3.35,35.37,6.01,6.93,1.56,11.28,8.44,9.72,15.37-1.56,6.93-8.44,11.28-15.37,9.72-10.56-2.41-21.43-4.26-32.55-5.5-10.73-1.2-21.77-1.82-33.09-1.82-79.31,0-151.26,31.4-204.09,82.45-53.02,51.23-86.82,122.23-89.49,201.11Zm2.25,48.24c.89,7.04-4.09,13.47-11.13,14.36-7.04,.89-13.47-4.09-14.36-11.13-.38-2.92-.62-4.84-.71-5.7-.11-1.01-.3-2.9-.57-5.78-.64-7.07,4.57-13.32,11.64-13.96,7.07-.64,13.32,4.57,13.96,11.64,.08,.81,.27,2.61,.57,5.28,.31,2.81,.52,4.56,.61,5.3Zm69.47,154.48c4.65,5.37,4.06,13.49-1.31,18.14-5.37,4.65-13.49,4.06-18.14-1.31-15.93-18.34-29.79-38.5-41.24-60.13-11.25-21.25-20.17-43.93-26.43-67.71-1.81-6.87,2.3-13.91,9.17-15.72,6.87-1.81,13.91,2.3,15.72,9.17,5.75,21.85,13.96,42.71,24.32,62.27,10.53,19.9,23.28,38.44,37.92,55.29Zm71.33-495.61c-6.37,3.17-14.11,.58-17.28-5.79-3.17-6.37-.58-14.11,5.79-17.28,24.75-12.32,51.12-21.91,78.73-28.38,26.79-6.28,54.68-9.6,83.29-9.6,10.87,0,21.65,.48,32.31,1.42,10.76,.95,21.41,2.37,31.94,4.25,7.01,1.22,11.7,7.9,10.48,14.91-1.22,7.01-7.9,11.7-14.91,10.48-9.74-1.74-19.65-3.06-29.72-3.94-9.9-.87-19.94-1.32-30.09-1.32-26.7,0-52.62,3.08-77.45,8.9-25.58,5.99-50.06,14.91-73.09,26.37Zm-115.32,512.33c4.4,5.59,3.43,13.69-2.17,18.09-5.59,4.4-13.69,3.43-18.09-2.17-24.81-31.47-44.56-67.24-58-106.05-12.96-37.43-20.01-77.53-20.01-119.15,0-61.8,15.45-120.06,42.71-171.15,28.25-52.94,69.19-98.07,118.75-131.34,5.9-3.95,13.88-2.37,17.83,3.53,3.95,5.9,2.37,13.88-3.53,17.83-46.08,30.93-84.14,72.88-110.39,122.07-25.27,47.35-39.59,101.49-39.59,159.06,0,38.91,6.51,76.18,18.5,110.79,12.43,35.89,30.81,69.11,53.97,98.49Zm159.16-577.16c-6.82,1.97-13.95-1.95-15.92-8.77-1.97-6.82,1.95-13.95,8.77-15.92,18.34-5.31,37.14-9.37,56.31-12.08,18.93-2.68,38.15-4.06,57.55-4.06,8.58,0,17.36,.29,26.32,.86,8.56,.55,17.3,1.4,26.19,2.54,7.04,.89,12.02,7.32,11.13,14.36-.89,7.04-7.32,12.02-14.36,11.13-7.87-1.01-16.07-1.79-24.57-2.34-7.91-.5-16.15-.76-24.71-.76-18.47,0-36.5,1.28-54.02,3.76-18.06,2.55-35.65,6.34-52.68,11.27Zm-205.45,589.77c4.12,5.79,2.76,13.82-3.02,17.93-5.79,4.12-13.82,2.76-17.93-3.02-21.03-29.53-38.23-62.01-50.9-96.72-19.51-42.64-50.7-78.84-89.49-104.48-39.31-25.99-86.47-41.12-137.2-41.12-9.39,0-18.5,.49-27.3,1.45-9.21,1-18.15,2.48-26.8,4.39-6.93,1.53-13.79-2.85-15.32-9.77-1.53-6.93,2.85-13.79,9.77-15.32,9.81-2.17,19.7-3.81,29.62-4.9,10.02-1.09,20.04-1.65,30.02-1.65,55.91,0,107.96,16.73,151.41,45.45,20.55,13.58,39.16,29.86,55.35,48.32-1.57-10.22-2.77-20.56-3.57-30.99-16.41-15.73-34.61-29.55-54.26-41.13-20.27-11.94-42.12-21.53-65.17-28.37-6.82-2-10.72-9.15-8.72-15.97,2-6.82,9.15-10.72,15.97-8.72,25.04,7.43,48.82,17.87,70.92,30.89,14.1,8.31,27.49,17.65,40.08,27.93,.07-7.82,.36-15.59,.87-23.3-27.85-20.9-59.09-37.61-92.79-49.2-34.49-11.86-71.53-18.3-110.09-18.3-9.06,0-17.93,.34-26.59,1.02-9.15,.71-17.92,1.73-26.3,3.05-7.01,1.08-13.58-3.72-14.66-10.73-1.08-7.01,3.72-13.58,10.73-14.66,9.61-1.51,19.05-2.63,28.32-3.35,9.52-.74,19.03-1.12,28.51-1.12,41.45,0,81.3,6.94,118.45,19.71,31.25,10.75,60.62,25.67,87.44,44.11,.96-6.88,2.08-13.71,3.37-20.48-14.69-9.6-30.12-18.23-46.19-25.81-17.37-8.19-35.44-15.11-54.08-20.63-6.82-2-10.72-9.15-8.72-15.97,2-6.82,9.15-10.72,15.97-8.72,19.97,5.92,39.28,13.31,57.81,22.04,14.19,6.69,27.96,14.19,41.24,22.44,11.72-44.7,30.82-86.43,55.93-123.8,45.05-67.05,109.42-120.02,185.13-150.92,6.59-2.67,14.11,.51,16.78,7.1,2.67,6.59-.51,14.11-7.1,16.78-70.95,28.96-131.25,78.57-173.44,141.35-40.93,60.91-64.81,134.28-64.81,213.28,0,40.76,6.31,79.92,18,116.56,1.42,4.45,2.92,8.86,4.5,13.24,.93,2.05,1.85,4.11,2.73,6.19,.5,1.18,.81,2.39,.95,3.6,11.5,29.34,26.53,56.95,44.58,82.3Zm-342.59-33.7c-5.56,4.42-13.66,3.5-18.09-2.07-4.42-5.56-3.5-13.66,2.07-18.09,8.37-6.66,17.9-11.97,28.27-15.59,10.03-3.5,20.74-5.41,31.8-5.41,23.45,0,44.98,8.41,61.75,22.39,17.02,14.19,29.09,34.14,33.21,56.86,1.25,6.98-3.39,13.66-10.38,14.91-6.98,1.25-13.66-3.39-14.91-10.38-3.02-16.63-11.87-31.24-24.35-41.65-12.24-10.21-28.04-16.35-45.33-16.35-8.26,0-16.11,1.37-23.34,3.9-7.54,2.63-14.53,6.53-20.71,11.45Z"/><path class="d" d="M279.82,463.45c-2.75,5.33-9.3,7.43-14.64,4.68-5.33-2.75-7.43-9.3-4.68-14.64l65.39-126.81-30.72-57.34-41.16-18.18c-.83-.37-1.64-.85-2.38-1.45l-65.43-52.06-49.13,239.93c-.18,1.21-.57,2.41-1.18,3.56l-32.2,59.86c-2.84,5.29-9.44,7.27-14.72,4.43-5.29-2.84-7.27-9.44-4.43-14.72l31.47-58.5,52.47-256.25c1.2-5.88,6.93-9.67,12.81-8.47,1.74,.35,3.29,1.1,4.59,2.14h0l78.16,62.18,43.29,19.12c2.57,1.13,4.49,3.14,5.55,5.52l25.08,46.82,13.01-25.24c1.83-3.56,5.36-5.67,9.09-5.87l59.53-5.81,35.55-37.68,60.52-90.79c1.72-2.58,4.36-4.19,7.19-4.69l58.07-12.66,96.48-75.81c4.16-3.27,9.96-3.02,13.82,.31l105.6,84.02,58.9,26.01c2.57,1.13,4.49,3.14,5.55,5.52l21.03,39.26c2.82,5.29,.82,11.86-4.47,14.68-5.29,2.82-11.86,.82-14.68-4.47l-19.59-36.58-56.77-25.07c-.83-.37-1.64-.85-2.38-1.45l-100.32-79.82-91.42,71.83c-1.31,1.1-2.91,1.91-4.7,2.3l-56.62,12.34-58.51,87.77h-.02c-.33,.48-.71,.96-1.13,1.4l-39.07,41.41h0c-1.75,1.85-4.15,3.1-6.89,3.36l-58.14,5.67-87.77,170.22Z"/><path class="e" d="M684.13,53.28l-3.19,63.64-58.83,64.06,41.84,27.92-85.84,132.92-73.17,53.27-54.82,92.28c18.84,6.84,37.17,14.99,54.87,24.39,39.4-116.63,127.75-213.2,245.62-261.32,19.53-7.97,40.73-15.1,61.45-19.84,23.25-5.61,46.91-9.26,70.76-10.94,2.96-2.8-7.68-3.7-2.42-4.1l-29.06-50.54-60.17-26.57-107.05-85.17Z"/><polygon class="e" points="246.9 279.03 193.95 375.77 289.44 415.33 337.67 325.69 302.95 260.88 258.39 241.2 179.11 178.12 203.75 288.18 246.9 279.03"/><path class="d" d="M880.03,117.26c2.06-2.36,4.3-3.4,7.4-3.69,4.21-.58,9.22,2.28,11.13,6.01,10.2-2.33,17.68,5.06,16.01,15.12,6.8,1.75,10.57,7.13,9.41,14.14-2.61-1.46-6.56-1.28-8.7,.8-5.17-1.68-9.68-.98-13.42,3.14-4.67-.21-12.05,4.21-11.32,9.37-2.88,.13-3.34,5.43-9.34,6.89v5.42c1.49-1.55,2.48-2.62,4.09-4.07-.13,1.33-.09,1.61,.52,2.79-4.42,3.26-6.04,10.87-2.93,15.5,.51,.75,1.19,1.41,1.64,2.17-.07,1.53-.54,4.35-.72,6.11,.86-1.36,1.96-2.88,2.92-4.18,1.34,1.19,3.46,1.78,5.14,2.3-1.36,2.18-7.78,11.08-7.81,12.78v8.05h-8.17v-17.48c.02-4.67-.91-3.68-2.96-7.67-1.06-2.06-1.66-4.28-2.58-6.4-2.48-5.65-5.46-8.2-9.88-11.91-.62-.52-1.11-1.17-1.74-1.67l-.55,.39c-.53-.16-2.99-.68-3.19-.86-4.33-3.95-6.42-5.51-12.66-2.97-9.38-5.75-9.08-18.82,1.59-22.33-3.13-3.92-2.05-9.56,2.88-11.08,1.11-.34,1.9-.35,3.04-.34-.02-2.75-.07-4.88,1.29-7.38,2.79-5.14,8.66-7.33,13.89-4.48,1.72-6.94,9.63-8.85,15.02-4.48Zm-10.41,47.51c-1.89,2.39-2.56,2.9-5.14,4.48,3.56,3.39,7.35,7.98,9.68,12.28,.62,1.12,1.15,2.16,1.71,3.3v-15.8c-3.59-1.34-3.86-2.56-6.26-4.26Z"/><path class="d" d="M914.82,154.97c1.67-1.34,2.96-1.98,5.09-2.2,3.24-.24,5.48,1.77,7.38,4.15,6.5-1.55,9.82,1.91,9.66,8.22,5.57,1.23,6.61,6.75,4.19,11.32,3.2,4.02,2.7,9.11-1.67,12.06-3.3,2.22-6.54,1.72-10.19,1.06-2.18,1.25-5.34,2.02-6.73,3.43-2.2,2.22-4.7,5.97-6.04,8.73-.24,.49-.15,4.58-.15,5.33v8.84h-4.58v-8.05l-.04-.07-.06-.12c-.65-1.27-1.74-2.45-2.46-3.78-2.98-5.55-5.27-13.31-13.36-13.53-1.22-.1-2.79,.13-3.97-.13-3.16-.71-6.15-3.9-6.06-7.23,.03-1.03,.49-3.46,1.25-4.16,1.28-1.19,.99-1.85,1.8-3.23,.27-.46,1.69-1.33,2.2-1.86-.79-2.55-2.18-2.82-.24-6.05,1.14-1.9,2.35-1.68,4.04-2.52l.09-.05c-.77-5.52,4.57-9.76,9.41-7.5,1.97-4.45,6.56-5.49,10.44-2.67Zm-6.75,32.82c-.85,1.24-1.7,2.03-2.98,2.81,3.04,2.7,3.87,4.02,5.59,7.71l.93,2.15c-.13-3.18-.12-7.2,0-10.33-1.44-.58-2.39-1.3-3.54-2.34Zm10.51,.74c-.9,.8-1.7,1.36-2.89,1.6v5.41c.3-.36,.43-.62,.66-1.03,.82-.77,3.11-3.43,3.84-4.39-.57-.51-1.13-1-1.61-1.6Z"/><path class="d" d="M842.58,172.43c1.68-.83,1.7-1.43,3.92-1.65,3.86-.26,3.63,2.16,5.41,3.38,1.15,.79,2.79,.97,4.09,1.42,3.84,1.09,6.32,4.53,8.61,7.57,2.3,3.06,2.69,7.2,4.78,10.42,.95,1.47,1.93,2.53,1.62,4.32-4.74-1.62-4.67,.19-8.69,.48-1.66,.12-7.88,8.69-8.81,10.09-.11,2.12,0,5.26,0,7.45-.65,0-3.6,.07-4.01-.1l-.05-.17c-.13-3.56,.34-2.06-1.74-5.28-1.8-2.8-2.78-6.12-5.23-8.64-4.21-4.34-5.91-3.71-11.24-3.86-3.81-.11-6.44-3.34-6.17-7.09,.21-2.88,2.05-5,4.17-6.84-.62-1.43-.97-2.67-.29-4.2,1.45-3.26,3.29-1.98,4.58-2.55,1.25-.79-.44-7.66,9.03-4.75Zm3.92,22.65c-.83,.94-1.5,1.77-2.59,2.41,1.85,2.7,3.26,3.75,5,7.21l.76,1.54v-9.05c-.92-.42-2.4-1.44-3.17-2.11Zm9.42,.46c-.62,.53-1.64,1.34-2.4,1.65-.09,1.57,.02,3.57,0,5.19,.16-.34,.43-.91,.64-1.18,1.02-1.33,2.24-2.74,3.63-3.7-.62-.62-1.31-1.28-1.87-1.95Z"/><path class="d" d="M90.69,298.14c4.2-4.83,8.77-6.94,15.09-7.53,8.59-1.19,18.81,4.65,22.71,12.26,20.8-4.75,36.07,10.32,32.67,30.84,13.88,3.58,21.56,14.55,19.21,28.85-5.33-2.99-13.38-2.62-17.75,1.63-10.56-3.43-19.75-1.99-27.39,6.42-9.53-.43-24.6,8.58-23.09,19.12-5.88,.27-6.81,11.07-19.06,14.05v11.06c3.05-3.17,5.05-5.35,8.34-8.31-.26,2.71-.18,3.28,1.06,5.7-9.02,6.65-12.32,22.17-5.99,31.63,1.03,1.54,2.43,2.89,3.35,4.43-.13,3.13-1.11,8.88-1.47,12.46,1.76-2.78,4.01-5.89,5.95-8.52,2.74,2.43,7.06,3.64,10.49,4.7-2.77,4.44-15.88,22.61-15.93,26.09v16.42h-16.66v-35.66c.04-9.52-1.86-7.52-6.04-15.66-2.16-4.2-3.38-8.74-5.27-13.05-5.05-11.53-11.14-16.73-20.15-24.3-1.26-1.06-2.26-2.38-3.55-3.41l-1.11,.8c-1.09-.32-6.1-1.38-6.52-1.76-8.83-8.06-13.09-11.24-25.82-6.06-19.14-11.73-18.53-38.4,3.24-45.57-6.39-8-4.19-19.5,5.87-22.6,2.27-.7,3.89-.71,6.21-.69-.05-5.6-.14-9.96,2.63-15.05,5.69-10.49,17.66-14.95,28.34-9.15,3.51-14.15,19.64-18.05,30.65-9.13Zm-21.24,96.94c-3.86,4.88-5.23,5.91-10.49,9.14,7.26,6.92,14.99,16.27,19.75,25.05,1.27,2.28,2.34,4.4,3.5,6.74v-32.24c-7.32-2.73-7.88-5.23-12.77-8.7Z"/><path class="d" d="M161.68,375.09c3.41-2.73,6.04-4.05,10.39-4.48,6.61-.49,11.18,3.62,15.06,8.46,13.27-3.17,20.03,3.89,19.72,16.77,11.37,2.51,13.48,13.77,8.55,23.11,6.53,8.21,5.5,18.59-3.42,24.61-6.72,4.54-13.34,3.51-20.79,2.17-4.45,2.55-10.91,4.13-13.74,7-4.48,4.53-9.59,12.18-12.32,17.81-.49,1-.31,9.35-.31,10.87v18.04h-9.35v-16.42s-.05-.1-.07-.15l-.13-.25c-1.33-2.6-3.56-5-5.01-7.71-6.07-11.33-10.76-27.16-27.25-27.6-2.49-.2-5.7,.27-8.09-.26-6.45-1.44-12.54-7.95-12.36-14.76,.06-2.09,1.01-7.06,2.55-8.49,2.62-2.44,2.02-3.77,3.66-6.58,.55-.94,3.44-2.71,4.5-3.8-1.62-5.21-4.46-5.76-.49-12.34,2.33-3.87,4.8-3.42,8.24-5.15l.19-.1c-1.56-11.25,9.32-19.92,19.19-15.29,4.02-9.07,13.39-11.21,21.3-5.45Zm-13.77,66.97c-1.73,2.53-3.46,4.14-6.08,5.73,6.19,5.52,7.89,8.2,11.4,15.72l1.9,4.39c-.27-6.48-.25-14.68,0-21.07-2.94-1.18-4.88-2.66-7.23-4.77Zm21.45,1.5c-1.83,1.64-3.47,2.77-5.91,3.27v11.04c.61-.74,.88-1.26,1.35-2.09,1.68-1.57,6.34-6.99,7.84-8.95-1.17-1.05-2.31-2.03-3.29-3.27Z"/></g></g></g></svg>